# xmcd
#
# Track frame offsets: 
#        150
#        22007
#        42237
#        56797
#        77822
#
# Disc length: 1281 seconds
#
# Revision: 0
# Processed by: cddbd v1.5.2PL0 Copyright (c) Steve Scherf et al.
# Submitted via: ExactAudioCopy v1.0b1
#
DISCID=3c04ff05
DTITLE=Various Artist - Loud 95 Nudder Budders E.P.
DYEAR=1994
DGENRE=Hip-Hop
TTITLE0=Tha Alkaholiks - Daaam!
TTITLE1=Mobb Deep - Shook Ones Part II
TTITLE2=Madkap - Questions
TTITLE3=Cella Dwellas - Land Of The Lost
TTITLE4=Bernard Paul - Someone
EXTD=
EXTT0=
EXTT1=
EXTT2=
EXTT3=
EXTT4=
PLAYORDER=
